<svg id="SvgjsSvg1037" width="288" height="288" xmlns="http://www.w3.org/2000/svg" version="1.1" xmlns:xlink="http://www.w3.org/1999/xlink" xmlns:svgjs="http://svgjs.com/svgjs"><defs id="SvgjsDefs1038"></defs><g id="SvgjsG1039"><svg xmlns="http://www.w3.org/2000/svg" viewBox="0 0 24 24" width="288" height="288"><path fill="#34e89e" d="M21,22H3a.99974.99974,0,0,1-1-1V3A.99974.99974,0,0,1,3,2H21a.99974.99974,0,0,1,1,1V21A.99974.99974,0,0,1,21,22ZM4,20H20V4H4Z" class="color6563ff svgShape"></path><path fill="#34e89e" d="M9 22a.99974.99974 0 0 1-1-1V3a1 1 0 0 1 2 0V21A.99974.99974 0 0 1 9 22zM15 22a.99974.99974 0 0 1-1-1V3a1 1 0 0 1 2 0V21A.99974.99974 0 0 1 15 22z" class="color6563ff svgShape"></path><path fill="#34e89e" d="M21 10H3A1 1 0 0 1 3 8H21a1 1 0 0 1 0 2zM21 16H3a1 1 0 0 1 0-2H21a1 1 0 0 1 0 2z" class="color6563ff svgShape"></path></svg></g></svg>